<?xml version="1.0" standalone="no"?>
<!DOCTYPE svg PUBLIC "-//W3C//DTD SVG 20010904//EN"
 "http://www.w3.org/TR/2001/REC-SVG-20010904/DTD/svg10.dtd">
<svg version="1.0" xmlns="http://www.w3.org/2000/svg"
 width="230.000000pt" height="230.000000pt" viewBox="0 0 230.000000 230.000000"
 preserveAspectRatio="xMidYMid meet">
<metadata>
Created by potrace 1.11, written by Peter Selinger 2001-2013
</metadata>
<g transform="translate(0.000000,230.000000) scale(0.100000,-0.100000)"
fill="#000000" stroke="none">
<path d="M1100 2010 c0 -91 -3 -110 -15 -110 -12 0 -15 -16 -15 -80 0 -64 3
-80 15 -80 13 0 15 -21 15 -130 l0 -129 -137 -4 -138 -3 143 -2 142 -2 0 140
c0 118 -2 140 -15 140 -12 0 -15 14 -15 70 0 56 3 70 15 70 12 0 15 19 15 110
l0 110 40 0 40 0 0 -110 c0 -91 3 -110 15 -110 12 0 15 -14 15 -70 0 -56 -3
-70 -15 -70 -13 0 -15 -22 -15 -140 l0 -140 225 0 225 0 0 -40 0 -40 46 0 47
0 -7 75 -7 75 281 0 280 0 0 -35 c0 -33 -2 -35 -35 -35 l-35 0 0 -70 0 -70
-35 0 c-33 0 -35 -2 -35 -35 0 -33 -2 -35 -35 -35 -33 0 -35 -2 -35 -35 l0
-35 -175 0 -175 0 0 -40 0 -40 -110 0 -110 0 0 40 c0 39 -1 40 -35 40 -33 0
-35 2 -35 35 l0 35 -105 0 -105 0 0 -35 c0 -33 2 -35 35 -35 l35 0 0 -75 0
-75 -51 0 -52 0 5 -341 c4 -233 9 -344 17 -352 6 -6 11 -43 11 -84 l0 -73 -70
0 -70 0 0 73 c0 41 5 78 11 84 8 8 13 119 17 352 l5 341 -52 0 -51 0 0 75 0
75 35 0 c33 0 35 2 35 35 l0 35 -105 0 -105 0 0 -35 c0 -33 -2 -35 -35 -35
-34 0 -35 -1 -35 -40 l0 -40 -110 0 -110 0 0 40 0 40 -175 0 -175 0 0 35 c0
33 -2 35 -35 35 -33 0 -35 2 -35 35 0 33 -2 35 -35 35 l-35 0 0 70 0 70 -35 0
c-33 0 -35 2 -35 35 l0 35 222 3 223 2 -228 3 -228 2 3 -42 c3 -40 5 -43 35
-46 l32 -3 3 -67 3 -67 32 -3 c28 -3 32 -7 35 -35 3 -28 7 -32 35 -35 28 -3
32 -7 35 -35 l3 -32 172 -3 172 -2 3 -38 3 -37 115 0 115 0 3 37 c3 33 6 37
35 40 28 3 32 7 35 36 l3 32 95 0 c93 0 94 0 94 -24 0 -21 -6 -25 -32 -28
l-33 -3 -3 -72 -3 -72 -32 -3 c-30 -3 -32 -6 -35 -45 l-3 -43 45 0 c46 0 46 0
46 35 0 34 1 35 41 35 l42 0 -5 -336 c-4 -229 -9 -339 -17 -347 -6 -6 -11 -45
-11 -89 l0 -78 80 0 80 0 0 78 c0 44 -5 83 -11 89 -8 8 -13 118 -17 347 l-5
336 42 0 c40 0 41 -1 41 -35 0 -35 0 -35 46 -35 l45 0 -3 43 c-3 39 -5 42 -35
45 l-32 3 -3 72 -3 72 -32 3 c-27 3 -33 7 -33 28 0 24 1 24 94 24 l95 0 3 -32
c3 -29 7 -33 35 -36 29 -3 32 -7 35 -40 l3 -37 115 0 115 0 3 37 3 38 172 2
172 3 3 32 c3 28 7 32 35 35 28 3 32 7 35 35 3 28 7 32 35 35 l32 3 3 67 3 67
32 3 c30 3 32 6 35 46 l3 42 -288 -2 -288 -3 -3 -32 -3 -33 -255 0 -254 0 0
130 c0 109 2 130 15 130 12 0 15 16 15 80 0 64 -3 80 -15 80 -12 0 -15 19 -15
110 l0 110 -50 0 -50 0 0 -110z m620 -575 c0 -33 -2 -35 -35 -35 -33 0 -35 2
-35 35 0 33 2 35 35 35 33 0 35 -2 35 -35z m-710 -430 c0 -33 -2 -35 -35 -35
-33 0 -35 2 -35 35 0 33 2 35 35 35 33 0 35 -2 35 -35z m350 0 c0 -33 -2 -35
-35 -35 -33 0 -35 2 -35 35 0 33 2 35 35 35 33 0 35 -2 35 -35z"/>
<path d="M1110 1820 l0 -40 40 0 40 0 0 40 0 40 -40 0 -40 0 0 -40z m70 0 c0
-27 -3 -30 -30 -30 -27 0 -30 3 -30 30 0 27 3 30 30 30 27 0 30 -3 30 -30z"/>
<path d="M572 1428 l-2 -38 45 0 c36 0 45 3 44 18 0 10 -3 12 -6 5 -2 -7 -20
-13 -38 -13 -31 0 -34 3 -38 33 -4 31 -4 31 -5 -5z"/>
</g>
</svg>
