<?xml version="1.0" encoding="UTF-8" standalone="no"?>
<!-- Created with Inkscape (http://www.inkscape.org/) -->

<svg
   xmlns:dc="http://purl.org/dc/elements/1.1/"
   xmlns:cc="http://creativecommons.org/ns#"
   xmlns:rdf="http://www.w3.org/1999/02/22-rdf-syntax-ns#"
   xmlns:svg="http://www.w3.org/2000/svg"
   xmlns="http://www.w3.org/2000/svg"
   xmlns:sodipodi="http://sodipodi.sourceforge.net/DTD/sodipodi-0.dtd"
   xmlns:inkscape="http://www.inkscape.org/namespaces/inkscape"
   width="146.06563mm"
   height="23.036839mm"
   viewBox="0 0 517.55537 81.626593"
   id="svg2"
   version="1.1"
   inkscape:version="0.91 r13725"
   sodipodi:docname="title2.svg">
  <defs
     id="defs4" />
  <sodipodi:namedview
     id="base"
     pagecolor="#ffffff"
     bordercolor="#666666"
     borderopacity="1.0"
     inkscape:pageopacity="0.0"
     inkscape:pageshadow="2"
     inkscape:zoom="1.979899"
     inkscape:cx="205.43497"
     inkscape:cy="45.521787"
     inkscape:document-units="px"
     inkscape:current-layer="layer1"
     showgrid="false"
     inkscape:window-width="1920"
     inkscape:window-height="1027"
     inkscape:window-x="0"
     inkscape:window-y="26"
     inkscape:window-maximized="1"
     fit-margin-top="0"
     fit-margin-left="0"
     fit-margin-right="0"
     fit-margin-bottom="0" />
  <metadata
     id="metadata7">
    <rdf:RDF>
      <cc:Work
         rdf:about="">
        <dc:format>image/svg+xml</dc:format>
        <dc:type
           rdf:resource="http://purl.org/dc/dcmitype/StillImage" />
        <dc:title></dc:title>
      </cc:Work>
    </rdf:RDF>
  </metadata>
  <g
     inkscape:label="Layer 1"
     inkscape:groupmode="layer"
     id="layer1"
     transform="translate(-84.010969,-554.63174)">
    <path
       style="fill:#ee6d03"
       d="m 387.06633,635.9386 c -6.34665,-0.95256 -11.48614,-3.4884 -12.1103,-5.97524 -1.34817,-5.37154 2.64222,-11.75885 8.34682,-13.36052 3.1182,-0.87548 5.39,0.12969 3.26348,1.44395 -2.75026,1.69975 1.19848,2.49933 12.30902,2.49245 15.35601,-0.01 23.5175,-1.30328 31.44098,-4.98402 4.55058,-2.11391 6.25,-3.43583 6.25,-4.86165 0,-3.14868 -8.1507,-7.83169 -16.85309,-9.683 -15.39346,-3.27473 -24.02021,-6.81458 -26.7461,-10.97482 -3.0238,-4.6149 0.35391,-17.07152 6.19457,-22.8449 8.87624,-8.77399 35.46212,-14.79943 51.90462,-11.7637 7.23695,1.33614 9.71613,3.70638 8.82133,8.43372 -1.01139,5.3433 -2.26447,6.77352 -8.15601,9.30895 -3.11592,1.34094 -7.3824,3.36974 -9.48106,4.50845 -2.09865,1.13871 -4.12365,1.75607 -4.5,1.3719 -0.69203,-0.70641 5.57254,-6.50338 7.02797,-6.50338 0.43327,0 0.78777,-0.45 0.78777,-1 0,-1.55694 -14.16423,-1.18988 -22.79216,0.59066 -13.81205,2.85038 -23.24809,8.9443 -20.53277,13.26033 0.58527,0.93029 5.56754,2.97717 11.43118,4.6963 11.69798,3.42968 20.72435,7.32339 25.60261,11.04422 8.01708,6.11492 8.4128,15.49472 0.97981,23.22446 -4.83324,5.0262 -8.53419,6.93621 -17.76348,9.16748 -8.19605,1.98147 -28.89405,3.38861 -35.42519,2.40836 z m 148.88748,-6.92319 c -1.63213,-2.49095 -1.55231,-8.06726 0.20354,-14.21862 1.03213,-3.61593 -0.7876,-2.52303 -5.27824,3.16999 -7.23948,9.17789 -15.89107,13.48162 -21.29146,10.59142 -1.01595,-0.54372 -2.63575,-3.13122 -3.59954,-5.75 -0.96379,-2.61877 -2.1036,-5.16454 -2.53292,-5.65726 -0.42985,-0.49334 -3.38845,1.33568 -6.58471,4.0707 -7.84303,6.7112 -10.35459,8.32515 -12.95523,8.32515 -5.07137,0 -6.62406,-5.13442 -3.89328,-12.87427 0.8006,-2.26915 1.11732,-4.12573 0.70383,-4.12573 -0.4135,0 -3.54549,3.12029 -6.95997,6.93399 -6.74125,7.5294 -9.23376,8.92082 -12.67817,7.07742 -5.08759,-2.72279 -7.24548,-14.57577 -3.92681,-21.56936 2.40903,-5.07664 12.63893,-16.80015 15.55449,-17.82549 1.41357,-0.49713 3.75832,-0.60565 5.21056,-0.24116 4.56819,1.14654 3.25289,4.16383 -5.85957,13.44174 -6.26405,6.37778 -8.5,9.33764 -8.5,11.25193 0,3.5593 0.81018,4.08054 3.87678,2.49415 2.7614,-1.4285 15.63076,-13.72246 25.50791,-24.36743 6.58727,-7.09935 9.85486,-7.97717 10.44521,-2.80607 0.25414,2.22607 -1.18763,5.1047 -6.27787,12.53434 -9.84219,14.36552 -9.9187,21.41106 -0.17047,15.69822 5.17866,-3.0349 7.06449,-5.18319 8.51135,-9.69589 1.47611,-4.60396 9.66051,-14.76284 13.87668,-17.22444 4.33844,-2.53298 8.23041,-1.65708 8.23041,1.85229 0,3.18977 -2.07398,6.46477 -8.70486,13.74573 -6.14862,6.75141 -7.32596,9.9035 -4.75867,12.74033 3.83209,4.23441 11.31279,1.18643 20.39283,-8.309 7.80035,-8.1572 12.00834,-13.78101 12.04288,-16.09484 0.0246,-1.64419 -0.50186,-1.78412 -4.47218,-1.18873 -5.44569,0.81663 -5.80991,-0.41244 -1.93921,-6.54403 2.89409,-4.58454 7.37707,-6.9037 13.34496,-6.9037 3.5529,0 4.30559,-0.46733 7.16453,-4.44834 3.18848,-4.43987 7.6732,-6.97106 10.4579,-5.90247 2.08761,0.80109 1.83898,2.18065 -1.08356,6.0123 -2.57811,3.38009 -2.53615,5.33851 0.1144,5.33851 2.27603,0 1.71121,2.12543 -2.0484,7.70812 -3.29858,4.89812 -3.74968,5.19812 -8.25,5.48665 l -4.76062,0.30523 -4.75,9.29753 c -4.93967,9.6688 -5.94504,14.96578 -3.26299,17.19169 2.12244,1.76147 5.25833,0.67738 11.49013,-3.97217 3.78618,-2.82486 6.1738,-5.5966 7.83889,-9.09997 2.9667,-6.24201 11.88051,-15.08864 18.55402,-18.4142 6.63303,-3.30537 12.99915,-3.39523 15.08428,-0.21292 3.78778,5.78088 -3.26463,14.5756 -17.37854,21.67193 -8.70864,4.37862 -9.63491,5.89112 -6.20317,10.12912 3.3181,4.0977 11.96713,2.12193 19.88821,-4.54321 3.38289,-2.84652 5.23917,-3.25024 5.23917,-1.13946 0,2.17721 -11.72598,13.2806 -16.43026,15.5579 -2.42101,1.17199 -6.21866,2.03376 -8.96239,2.03376 -6.04073,0 -10.21339,-3.68411 -11.20645,-9.89437 -0.36108,-2.2581 -0.8866,-4.10563 -1.16781,-4.10563 -0.28121,0 -3.26119,2.41367 -6.62219,5.36372 -11.50886,10.10166 -17.86554,12.22966 -21.22342,7.1049 z m 45.46405,-23.89184 c 1.51371,-0.78278 4.67137,-3.50527 7.01701,-6.04999 4.03226,-4.37449 4.76571,-6.48204 2.5167,-7.23171 -1.73105,-0.57702 -10.22783,5.71416 -12.34576,9.14104 -3.4027,5.50568 -2.47349,6.87392 2.81205,4.14066 z m -478.70588,23.91839 c -9.125146,-2.56931 -14.780444,-7.86886 -17.665165,-16.55394 -2.113848,-6.3642 -1.451912,-7.17101 6.346138,-7.73507 l 5.856392,-0.42361 2.408499,4.79027 c 2.915906,5.7995 7.346306,8.42718 14.208626,8.42718 10.90932,0 17.46881,-8.32196 11.36814,-14.42263 -1.60532,-1.60532 -5.26581,-3.01698 -11.75,-4.53137 -20.009072,-4.67314 -26.9207,-10.51841 -26.916721,-22.76388 0.0031,-9.42885 5.961315,-16.04986 16.972271,-18.86015 12.5308,-3.1982 27.24081,0.60107 32.56877,8.41179 2.86996,4.20732 4.99305,11.05488 3.7802,12.1922 -0.45254,0.42436 -3.60538,1.08283 -7.00632,1.46327 l -6.18352,0.69171 -2.12539,-4.16611 c -3.41432,-6.69261 -12.40952,-9.05892 -20.00757,-5.26328 -2.98403,1.49069 -3.5,2.25616 -3.5,5.1924 0,4.46581 2.7285,6.09133 16,9.53211 5.5,1.42594 11.95294,3.53688 14.33986,4.69098 11.33999,5.48302 14.52543,21.10992 6.45892,31.68566 -5.6442,7.39993 -22.7819,11.12575 -35.15313,7.64247 z m 143.27451,0.15785 c -9.80304,-3.22343 -15.44007,-11.28281 -16.20264,-23.16523 -0.62603,-9.75488 1.63071,-17.28295 6.89212,-22.99091 11.4192,-12.38837 32.93413,-8.65868 39.38613,6.82773 0.87638,2.10353 1.86342,6.71603 2.19343,10.25 l 0.60001,6.42539 -15.56282,0 c -8.55955,0 -16.27462,0.27315 -17.1446,0.60699 -3.37107,1.2936 -0.64864,9.13026 3.89027,11.19833 4.83486,2.2029 8.47954,1.4989 11.97037,-2.31219 l 3.21216,-3.50687 5.38757,1.02173 c 2.96316,0.56196 5.72619,1.36036 6.14006,1.77423 1.44132,1.44132 -4.2545,9.17583 -8.65735,11.75607 -5.38035,3.1531 -15.8893,4.15847 -22.10471,2.11473 z m 18.22511,-32.17098 c 0.84818,-2.21035 -1.4763,-7.14131 -4.21121,-8.93329 -1.30003,-0.85181 -3.98914,-1.54875 -5.9758,-1.54875 -4.72947,0 -9.45826,4.46122 -9.45826,8.92308 l 0,3.07692 9.53138,0 c 7.59998,0 9.64942,-0.30759 10.11389,-1.51796 z m 39.85473,32.64405 c -10.83341,-2.85822 -16.83957,-10.51409 -18.16009,-23.14809 -1.48994,-14.25502 6.0797,-27.19991 17.50866,-29.94167 16.58021,-3.97753 29.6928,5.82153 30.93008,23.11409 l 0.49008,6.84958 -15.55258,0 c -8.55391,0 -16.26438,0.27315 -17.13436,0.60699 -2.70006,1.03611 -1.82865,5.34615 1.81821,8.99301 4.77257,4.77257 9.58761,4.75321 14.12402,-0.0568 3.17507,-3.36655 3.3951,-3.43547 8.42825,-2.63983 2.84243,0.44933 5.6782,1.3271 6.30171,1.9506 1.68611,1.68611 -3.91184,9.13136 -8.96699,11.92605 -4.50817,2.4923 -14.66725,3.69682 -19.78699,2.34606 z m 16.14527,-32.64405 c 0.80446,-2.0964 -1.48718,-7.2579 -4.00559,-9.02187 -4.75844,-3.33294 -12.36098,-0.96144 -14.65243,4.57062 -2.17238,5.24457 -1.07826,5.96921 9.01275,5.96921 7.18096,0 9.18372,-0.31519 9.64527,-1.51796 z M 353.89181,629.15 c -6.04087,-2.74628 -6.77057,-5.13811 -7.32548,-24.01169 l -0.5,-17.00602 -2.5,-0.58783 c -2.24739,-0.52844 -2.5,-1.08394 -2.5,-5.49767 0,-4.4144 0.25227,-4.96889 2.5,-5.49516 2.16515,-0.50693 2.5406,-1.21078 2.80315,-5.25497 0.29333,-4.51832 0.49201,-4.78436 6.13081,-8.20975 3.20522,-1.94707 6.3131,-3.54012 6.90641,-3.54012 0.66102,0 1.19121,3.19467 1.36919,8.25 l 0.29044,8.25 4.5,0.5 4.5,0.5 0,5 0,5 -4.5,0.5 -4.5,0.5 -0.2791,13.26136 c -0.33118,15.73526 0.2553,17.52402 5.59294,17.05856 3.64839,-0.31816 3.6722,-0.2951 4.31623,4.18008 0.41699,2.89753 0.23215,4.94232 -0.51906,5.74211 -1.85795,1.97811 -12.58129,2.54511 -16.28553,0.8611 z m -189.60878,-0.30948 c -0.98385,-1.71484 -15.7167,-49.27621 -15.7167,-50.73749 0,-1.23369 1.23136,-1.55624 5.94098,-1.55624 3.43143,0 6.2441,0.49045 6.65857,1.16107 0.39467,0.6386 2.56196,7.5011 4.81621,15.25 2.25424,7.74891 4.54539,14.00984 5.09143,13.91318 0.54605,-0.0967 2.79299,-6.84667 4.99321,-15 l 4.0004,-14.82425 6.09097,-0.2936 c 4.09561,-0.19742 6.4239,0.13018 7.10726,1 0.55896,0.71148 2.45999,7.16501 4.22451,14.34117 3.09072,12.56974 4.44787,16.42529 5.42905,15.42347 0.25373,-0.25907 2.4436,-7.22104 4.86638,-15.47104 l 4.40505,-15 5.83374,-0.30425 c 3.20855,-0.16734 6.22446,0.0865 6.70201,0.56402 0.77139,0.77139 -12.9357,45.97614 -15.30977,50.49023 -0.71864,1.36644 -2.22001,1.75 -6.85,1.75 -4.63946,0 -6.12448,-0.38077 -6.82514,-1.75 -0.49254,-0.9625 -2.36716,-7.375 -4.16585,-14.25 -3.15392,-12.05505 -4.33789,-15.00445 -5.54047,-13.80187 -0.31063,0.31063 -2.25866,7.03063 -4.32895,14.93333 l -3.76417,14.36854 -6.60167,0.29373 c -3.63091,0.16155 -6.80659,-0.0634 -7.05705,-0.5 z m 362.95108,-48.10834 c -0.91728,-1.01358 -1.6661,-2.48244 -1.66404,-3.26413 0.007,-2.70155 3.94329,-7.86986 6.47823,-8.50609 5.37716,-1.34958 7.43503,4.79845 3.26306,9.74865 -3.03221,3.59784 -5.98251,4.33624 -8.07725,2.02157 z"
       id="path3382"
       inkscape:connector-curvature="0" />
  </g>
</svg>
